# xmcd
#
# Track frame offsets:
# 150
# 10467
# 22790
# 39369
# 55676
# 70688
# 83805
# 104180
# 117241
# 131152
# 150887
# 164923
#
# Disc length: 2377 seconds
#
#
# Revision: 0
# Processed by: cddbd v1.5.2PL0 Copyright (c) Steve Scherf et al.
# Submitted via: FreeRIP 2.951 
#
DISCID=9609470c
DTITLE=Sven-Olov Kareliusson - Live-music med Sven-Olov
DYEAR=1900
DGENRE=Dragspel
TTITLE0=Tequila
TTITLE1=The key's in the mailbox
TTITLE2=Du ska inte ge mig rosor
TTITLE3=Mona Lisa
TTITLE4=Nei så tjukk du har blitt
TTITLE5=Cottonfields
TTITLE6=Still
TTITLE7=Jag vill ha sommar(Just call me lonesome)
TTITLE8=Har jag sagt till dig idag
TTITLE9=Farfars gamla handklaver
TTITLE10=Did I tell you
TTITLE11=Blå Violer till dig
EXTD=
EXTT0=
EXTT1=
EXTT2=
EXTT3=
EXTT4=
EXTT5=
EXTT6=
EXTT7=
EXTT8=
EXTT9=
EXTT10=
EXTT11=
PLAYORDER=
